<?xml version="1.0" encoding="utf-8"?>
<!-- Generator: Adobe Illustrator 24.2.3, SVG Export Plug-In . SVG Version: 6.00 Build 0)  -->
<svg version="1.1" id="Layer_1" xmlns="http://www.w3.org/2000/svg" xmlns:xlink="http://www.w3.org/1999/xlink" x="0px" y="0px"
	 viewBox="0 0 500 149.67" style="enable-background:new 0 0 500 149.67;" xml:space="preserve">
<style type="text/css">
	.st0{fill:#FFFFFF;}
	.st1{fill:#FBB040;}
</style>
<path class="st0" d="M0,122.72h2.83v26.73H0V122.72z"/>
<path class="st0" d="M84.33,147v2.45H62.42v-1.95l17.71-22.34H62.68v-2.44h21.2v1.94L66.2,147H84.33z"/>
<path class="st0" d="M143.92,122.72h2.83V147h15v2.45h-17.8L143.92,122.72z"/>
<path class="st0" d="M228.16,147.9c-2.08-1.14-3.81-2.82-5-4.87c-2.41-4.32-2.41-9.58,0-13.9c1.19-2.05,2.92-3.73,5-4.87
	c2.21-1.19,4.69-1.8,7.2-1.77c2.5-0.04,4.96,0.56,7.16,1.75c2.08,1.14,3.81,2.82,5,4.87c2.45,4.32,2.45,9.62,0,13.94
	c-1.19,2.05-2.92,3.74-5,4.87c-4.5,2.36-9.86,2.36-14.36,0V147.9z M241.09,145.72c1.68-0.93,3.07-2.32,4-4
	c1.93-3.53,1.93-7.81,0-11.34c-0.94-1.68-2.32-3.06-4-4c-3.59-1.91-7.88-1.91-11.47,0c-1.69,0.94-3.09,2.32-4.05,4
	c-1.96,3.53-1.96,7.81,0,11.34c0.95,1.68,2.35,3.07,4.05,4C233.2,147.64,237.51,147.64,241.09,145.72z"/>
<path class="st0" d="M326.23,115.84l-4.93,4.73h-2.75l-4.92-4.73h2.52l3.78,3.13l3.78-3.13H326.23z M330.89,147.03v2.45H309v-1.95
	l17.72-22.34h-17.48v-2.44h21.19v1.94l-17.68,22.34H330.89z"/>
<path class="st0" d="M411.38,137.94c1,1.23,1.51,2.79,1.44,4.37c0.1,2.08-0.86,4.07-2.54,5.29c-1.7,1.23-4.2,1.85-7.51,1.85h-12.29
	v-26.73H402c2.44-0.15,4.87,0.48,6.93,1.79c1.63,1.17,2.55,3.08,2.46,5.08c0.04,1.34-0.34,2.65-1.09,3.76
	c-0.75,1.05-1.79,1.85-3,2.31C408.88,135.93,410.32,136.74,411.38,137.94z M393.3,125.05v9.7h8.52c1.76,0.11,3.5-0.33,5-1.25
	c1.99-1.55,2.35-4.42,0.8-6.41c-0.23-0.3-0.5-0.56-0.8-0.8c-1.5-0.92-3.25-1.35-5-1.24L393.3,125.05z M408.16,145.9
	c1.24-0.86,1.94-2.31,1.83-3.82c0-3.33-2.42-5-7.26-5h-9.43v10h9.43C404.62,147.21,406.5,146.8,408.16,145.9L408.16,145.9z"/>
<path class="st0" d="M493.45,142.31h-14.9l-3.2,7.14h-2.94l12.22-26.73h2.78l12.22,26.73h-3L493.45,142.31z M492.45,140.02
	L486,125.66l-6.42,14.36H492.45z"/>
<path class="st0" d="M97.1,108.77L96.79,59.2L73.18,98.98H57L33.4,60.91v47.86H0V0.01h30.14l35.42,58l34.5-58h30.14l0.31,108.76
	H97.1z"/>
<path class="st0" d="M334.16,89.84h-41.33l-7.3,19h-37.29L295.79,0.08h36l47.54,108.76h-37.87L334.16,89.84z M324.06,63.43
	L313.5,36.05L302.93,63.4L324.06,63.43z"/>
<path class="st0" d="M430.4,72.72l-8.24,9.17v26.88h-36V0.01h36v39.46L457.9,0.01h39.92l-43.5,47.83L500,108.77h-42.42L430.4,72.72z
	"/>
<path class="st1" d="M218.66,75.2c6.28-3.09,11.56-7.88,15.23-13.83c3.62-6.16,5.45-13.21,5.28-20.35
	c0.51-15.7-8.77-30.07-23.3-36.05c-7.46-3.33-16.21-5-26.26-5h-52.36v108.79H241.5L218.66,75.2z M197.31,99.01
	c-1.1,1.96-3.02,3.33-5.23,3.75c-1.11,0.2-2.11,0.8-2.8,1.69c-1.93,2.22-5.19,2.7-7.67,1.12c-0.99-0.54-1.79-1.38-2.28-2.4
	c-0.69-2.05-2.13-3.31-3.69-4.63c-1.79-1.57-2.66-3.94-2.31-6.29c0.11-1.1,0.46-1.47,1.67-1.22c7.59,1.54,15.21,3,22.82,4.49
	c0.22,0.06,0.17,0.24,0.2,0.4c-0.05,0.06-0.05,0.16,0,0.22C198.49,97.27,197.81,98.16,197.31,99.01z M197.01,94.12
	c-0.67-0.02-1.34-0.11-2-0.27l-17.47-3.43c-0.92-0.12-1.81-0.46-2.57-1c-1.87-1.71-2.35-3-1.59-4.85c0.64-1.57,2.25-2.53,3.94-2.32
	c6.88,1.51,13.79,2.84,20.72,4.08c0.95,0.49,1.75,1.22,2.35,2.1C202.19,90.72,199.77,94.11,197.01,94.12L197.01,94.12z
	 M213.37,66.25c-3.2,2.78-6.23,5.74-9.09,8.87c-0.64,0.69-1.05,1.55-1.19,2.48c-0.41,2.08-0.78,4.16-1.24,6.23
	c-0.38,1.7-0.77,2-2.49,1.64c-7.56-1.44-15.11-2.94-22.66-4.45c-0.76-0.11-1.48-0.44-2.07-0.93c0.51-2.74,1-5.49,1.57-8.22
	c0.19-0.85,0.13-1.74-0.18-2.56c-1.62-4.36-3.48-8.62-5.58-12.77c-7.31-13.92-1.95-31.13,11.98-38.44c4.19-2.2,8.86-3.32,13.58-3.26
	c11.87,0.22,22.38,7.69,26.5,18.82c0.16,0.44,0.34,0.86,0.51,1.29c1.51,3.64,1.99,7.63,1.39,11.52
	C223.52,54.28,219.55,61.4,213.37,66.25z"/>
<path class="st1" d="M211.67,22c-11.79-8.85-28.53-6.46-37.38,5.33c-2.27,3.03-3.87,6.5-4.7,10.19c-1.42,5.77-0.71,11.86,2,17.15
	c0-0.26,0.18-0.56,0.09-0.75c-1.14-2.42-1.17-5.06-1.49-7.63c-0.23-1.21-0.27-2.45-0.13-3.68c0.45-2.82,1.22-5.58,2.29-8.22
	c1.64-3.88,4.19-7.31,7.43-10c4.07-3.35,9.01-5.47,14.24-6.13c2.4-0.27,4.83-0.23,7.22,0.11c2.48,0.14,4.87,0.92,6.95,2.27
	c1.2,0.85,2.53,1.95,4.21,2.07C212.17,22.46,211.93,22.22,211.67,22z"/>
<path class="st1" d="M194,96.66c-5.5-1.11-11.01-2.2-16.52-3.25c-0.73-0.14-1.74-0.75-2.17-0.19c-0.58,0.76,0.06,1.76,0.45,2.59
	c0.19,0.3,0.41,0.58,0.66,0.83c0.07-0.19,0.26-0.41,0.22-0.57c-0.45-1.82,0.66-1.52,1.7-1.26c1.49,0.38,3,0.8,4.46,1.18
	c3.49,0.91,7.11,1.07,10.63,1.79c0.62,0.13,1.46,0.06,1.19,1.14c0.62-0.31,1-0.94,1-1.63C195.44,96.6,194.56,96.77,194,96.66z"/>
<path class="st1" d="M187.17,102.15l-6.81-1.31c0.42,2.31,2.63,3.84,4.94,3.42c0.76-0.14,1.48-0.49,2.06-1
	C187.81,102.84,188.25,102.36,187.17,102.15z"/>
<path class="st1" d="M197.07,88.04l-19.72-3.88c-0.94-0.3-1.95,0.18-2.31,1.1c-0.45,0.84-0.13,1.89,0.71,2.34
	c0.06,0.03,0.13,0.06,0.2,0.09c0.58-2.15,1.28-2.59,3.62-2.13c5.6,1.11,11.2,2.25,16.8,3.36c0.8,0.16,1.72-0.12,2.32,0.71
	C198.63,88.77,197.93,88.08,197.07,88.04z"/>
</svg>
