<svg width="30" height="31" viewBox="0 0 30 31" fill="none" xmlns="http://www.w3.org/2000/svg">
<path fill-rule="evenodd" clip-rule="evenodd" d="M14.3365 0.773961C14.4235 0.686655 14.527 0.617387 14.6409 0.570125C14.7548 0.522863 14.8769 0.498535 15.0002 0.498535C15.1235 0.498535 15.2456 0.522863 15.3595 0.570125C15.4734 0.617387 15.5769 0.686655 15.664 0.773961L19.414 4.52396C19.5011 4.61113 19.5703 4.71461 19.6174 4.82849C19.6646 4.94238 19.6889 5.06444 19.6889 5.18771C19.6889 5.31098 19.6646 5.43304 19.6174 5.54693C19.5703 5.66082 19.5011 5.7643 19.414 5.85146C19.3268 5.93863 19.2233 6.00777 19.1094 6.05494C18.9955 6.10212 18.8735 6.12639 18.7502 6.12639C18.6269 6.12639 18.5049 6.10212 18.391 6.05494C18.2771 6.00777 18.1736 5.93863 18.0865 5.85146L15.9377 3.70084V10.8127C15.9377 11.0614 15.8389 11.2998 15.6631 11.4756C15.4873 11.6514 15.2488 11.7502 15.0002 11.7502C14.7516 11.7502 14.5131 11.6514 14.3373 11.4756C14.1615 11.2998 14.0627 11.0614 14.0627 10.8127V3.70084L11.914 5.85146C11.7379 6.0275 11.4992 6.12639 11.2502 6.12639C11.0013 6.12639 10.7625 6.0275 10.5865 5.85146C10.4104 5.67542 10.3115 5.43667 10.3115 5.18771C10.3115 4.93876 10.4104 4.7 10.5865 4.52396L14.3365 0.773961ZM15.0002 19.2502C15.2488 19.2502 15.4873 19.349 15.6631 19.5248C15.8389 19.7006 15.9377 19.9391 15.9377 20.1877V27.2996L18.0865 25.149C18.2625 24.9729 18.5013 24.874 18.7502 24.874C18.9992 24.874 19.2379 24.9729 19.414 25.149C19.59 25.325 19.6889 25.5638 19.6889 25.8127C19.6889 26.0617 19.59 26.3004 19.414 26.4765L15.664 30.2265C15.5769 30.3138 15.4734 30.383 15.3595 30.4303C15.2456 30.4776 15.1235 30.5019 15.0002 30.5019C14.8769 30.5019 14.7548 30.4776 14.6409 30.4303C14.527 30.383 14.4235 30.3138 14.3365 30.2265L10.5865 26.4765C10.4993 26.3893 10.4302 26.2858 10.383 26.1719C10.3358 26.058 10.3115 25.936 10.3115 25.8127C10.3115 25.6894 10.3358 25.5674 10.383 25.4535C10.4302 25.3396 10.4993 25.2361 10.5865 25.149C10.7625 24.9729 11.0013 24.874 11.2502 24.874C11.3735 24.874 11.4955 24.8983 11.6094 24.9455C11.7233 24.9927 11.8268 25.0618 11.914 25.149L14.0627 27.2996V20.1877C14.0627 19.9391 14.1615 19.7006 14.3373 19.5248C14.5131 19.349 14.7516 19.2502 15.0002 19.2502ZM0.273961 16.164C0.186655 16.0769 0.117387 15.9734 0.070125 15.8595C0.0228629 15.7456 -0.00146484 15.6235 -0.00146484 15.5002C-0.00146484 15.3769 0.0228629 15.2548 0.070125 15.1409C0.117387 15.027 0.186655 14.9235 0.273961 14.8365L4.02396 11.0865C4.2 10.9104 4.43876 10.8115 4.68771 10.8115C4.93667 10.8115 5.17542 10.9104 5.35146 11.0865C5.5275 11.2625 5.62639 11.5013 5.62639 11.7502C5.62639 11.9992 5.5275 12.2379 5.35146 12.414L3.20084 14.5627H10.3127C10.5614 14.5627 10.7998 14.6615 10.9756 14.8373C11.1514 15.0131 11.2502 15.2516 11.2502 15.5002C11.2502 15.7488 11.1514 15.9873 10.9756 16.1631C10.7998 16.3389 10.5614 16.4377 10.3127 16.4377H3.20084L5.35146 18.5865C5.5275 18.7625 5.62639 19.0013 5.62639 19.2502C5.62639 19.4992 5.5275 19.7379 5.35146 19.914C5.17542 20.09 4.93667 20.1889 4.68771 20.1889C4.43876 20.1889 4.2 20.09 4.02396 19.914L0.273961 16.164ZM18.7502 15.5002C18.7502 15.2516 18.849 15.0131 19.0248 14.8373C19.2006 14.6615 19.4391 14.5627 19.6877 14.5627H26.7996L24.649 12.414C24.5618 12.3268 24.4927 12.2233 24.4455 12.1094C24.3983 11.9955 24.374 11.8735 24.374 11.7502C24.374 11.6269 24.3983 11.5049 24.4455 11.391C24.4927 11.2771 24.5618 11.1736 24.649 11.0865C24.825 10.9104 25.0638 10.8115 25.3127 10.8115C25.436 10.8115 25.558 10.8358 25.6719 10.883C25.7858 10.9302 25.8893 10.9993 25.9765 11.0865L29.7265 14.8365C29.8138 14.9235 29.883 15.027 29.9303 15.1409C29.9776 15.2548 30.0019 15.3769 30.0019 15.5002C30.0019 15.6235 29.9776 15.7456 29.9303 15.8595C29.883 15.9734 29.8138 16.0769 29.7265 16.164L25.9765 19.914C25.8893 20.0011 25.7858 20.0703 25.6719 20.1174C25.558 20.1646 25.436 20.1889 25.3127 20.1889C25.1894 20.1889 25.0674 20.1646 24.9535 20.1174C24.8396 20.0703 24.7361 20.0011 24.649 19.914C24.5618 19.8268 24.4927 19.7233 24.4455 19.6094C24.3983 19.4955 24.374 19.3735 24.374 19.2502C24.374 19.1269 24.3983 19.0049 24.4455 18.891C24.4927 18.7771 24.5618 18.6736 24.649 18.5865L26.7996 16.4377H19.6877C19.4391 16.4377 19.2006 16.3389 19.0248 16.1631C18.849 15.9873 18.7502 15.7488 18.7502 15.5002Z" fill="white"/>
</svg>
